<svg fill="none" xmlns="http://www.w3.org/2000/svg" viewBox="0 0 525 83">
  <clipPath id="a">
    <path d="M0 0h525v83H0z"/>
  </clipPath>
  <g clip-path="url(#a)">
    <path d="M0 0h525v83H0z" fill="#fff"/>
    <path d="M19.492 23.724c-9.548 0-18.348 7.04-18.348 17.072 0 10.736 7.7 18.304 18.348 18.304S37.84 51.532 37.84 40.796c0-10.032-8.8-17.072-18.348-17.072zm0 8.36c5.148 0 9.372 4.18 9.372 8.756 0 5.72-4.224 9.9-9.372 9.9s-9.372-4.18-9.372-9.9c0-4.576 4.224-8.756 9.372-8.756zm29.9076 3.344h-8.008v33.836h8.008v-13.42c1.716 1.98 4.4 2.904 6.996 2.904 6.688 0 11.308-5.456 11.308-11.968 0-6.468-4.664-12.1-11.396-12.1-2.64 0-5.368 1.056-6.82 3.3h-.088zm4.884 6.204c3.256 0 5.148 2.332 5.148 5.104 0 2.86-1.892 5.06-5.148 5.06s-5.148-2.2-5.148-5.06c0-2.772 1.892-5.104 5.148-5.104zm23.8322 1.804c.484-2.332 2.42-3.564 4.752-3.564 2.156 0 4.136 1.408 4.532 3.564zm16.72 3.784c0-7.7-4.532-12.54-12.364-12.54-7.348 0-12.496 4.532-12.496 12.056 0 7.788 5.588 12.012 13.068 12.012 2.596 0 5.148-.616 7.216-1.892s3.652-3.212 4.268-5.852h-7.7c-.88 1.496-2.112 2.068-3.828 2.068-3.3 0-5.016-1.76-5.016-5.016h16.852zm11.6752-11.792h-8.0077V58h8.0077v-9.108c0-3.872 1.1-6.82 5.544-6.82 1.232 0 2.288.132 3.388.748v-7.7h-1.54c-3.124 0-5.764 1.232-7.304 4.004h-.088zm23.722 6.204c3.256 0 5.148 2.332 5.148 5.104 0 2.86-1.892 5.06-5.148 5.06s-5.148-2.2-5.148-5.06c0-2.772 1.892-5.104 5.148-5.104zm12.892-6.204h-8.008v2.2c-1.672-1.98-4.4-2.948-6.996-2.948-6.688 0-11.308 5.544-11.308 12.012s4.708 12.056 11.396 12.056c2.64 0 5.412-1.012 6.82-3.256h.088V58h8.008zm14.064 6.6h4.532v-6.6h-4.532v-6.776h-8.008v6.776h-2.596v6.6h2.596V58h8.008zm15.107-6.6h-8.008V58h8.008zm-4.004-13.156c-2.464 0-4.488 2.024-4.488 4.488s2.024 4.488 4.488 4.488 4.488-2.024 4.488-4.488-2.024-4.488-4.488-4.488zM189.49 34.68c-7.26 0-13.596 4.356-13.596 12.056s6.38 12.012 13.596 12.012c7.26 0 13.596-4.356 13.596-12.012 0-7.7-6.336-12.056-13.596-12.056zm0 6.952c3.256 0 5.148 2.332 5.148 5.104 0 2.86-1.892 5.06-5.148 5.06s-5.148-2.2-5.148-5.06c0-2.772 1.892-5.104 5.148-5.104zm25.217-6.204h-8.008V58h8.008V46.296c0-2.816.924-5.236 4.18-5.236 3.96 0 3.608 3.784 3.608 5.94v11h8.008V44.052c0-5.544-2.42-9.372-8.492-9.372-3.124 0-5.368.924-7.216 3.652h-.088zm29.881 8.844h.88c2.816 0 7.084-.396 7.084 3.608 0 3.652-4.312 3.52-6.864 3.52h-1.1zM249.252 58c6.072 0 12.012-2.288 12.012-9.24 0-4.62-2.024-7.832-6.776-8.448v-.088c2.684-1.364 3.652-3.784 3.652-6.776 0-6.336-3.96-8.624-9.856-8.624h-12.32V58zm-4.664-26.576h.616c2.332 0 5.016.176 5.016 3.212 0 2.816-2.376 3.212-4.664 3.212h-.968zm27.446 12.012c.484-2.332 2.42-3.564 4.752-3.564 2.156 0 4.136 1.408 4.532 3.564zm16.72 3.784c0-7.7-4.532-12.54-12.364-12.54-7.348 0-12.496 4.532-12.496 12.056 0 7.788 5.588 12.012 13.068 12.012 2.596 0 5.148-.616 7.216-1.892s3.652-3.212 4.268-5.852h-7.7c-.88 1.496-2.112 2.068-3.828 2.068-3.3 0-5.016-1.76-5.016-5.016h16.852zm15.459-5.588c3.256 0 5.148 2.332 5.148 5.104 0 2.86-1.892 5.06-5.148 5.06s-5.148-2.2-5.148-5.06c0-2.772 1.892-5.104 5.148-5.104zm12.892-6.204h-8.008v2.2c-1.672-1.98-4.4-2.948-6.996-2.948-6.688 0-11.308 5.544-11.308 12.012s4.708 12.056 11.396 12.056c2.64 0 5.412-1.012 6.82-3.256h.088V58h8.008zm13.316 0h-8.008V58h8.008v-9.108c0-3.872 1.1-6.82 5.544-6.82 1.232 0 2.288.132 3.388.748v-7.7h-1.54c-3.124 0-5.764 1.232-7.304 4.004h-.088zm20.73 2.2V24.824h-8.624V58h8.624V44.404h12.452V58h8.624V24.824h-8.624v12.804zm26.388-2.2v13.596c0 7.436 5.236 9.724 12.012 9.724s12.012-2.288 12.012-9.724V35.428h-8.008v12.056c0 2.86-.704 4.884-4.004 4.884s-4.004-2.024-4.004-4.884V35.428zm53.908 0h-8.008v2.376h-.088c-1.584-2.244-4.004-3.124-6.644-3.124-6.908 0-11.572 5.632-11.572 12.232 0 6.512 4.532 11.528 11.132 11.528 2.992 0 5.104-1.012 7.172-3.08v1.056c0 3.652-.836 6.468-5.148 6.468-.748 0-1.584-.176-2.288-.528s-1.276-.924-1.496-1.716h-8.976c.704 5.94 7.656 8.624 12.848 8.624 8.316 0 13.068-3.872 13.068-13.464zm-12.892 6.028c3.256 0 5.148 2.332 5.148 5.104 0 2.86-1.892 5.06-5.148 5.06s-5.148-2.2-5.148-5.06c0-2.772 1.892-5.104 5.148-5.104zm22.826 7.128c-2.86 0-5.148 2.288-5.148 5.148 0 2.816 2.288 5.148 5.148 5.148s5.148-2.332 5.148-5.148c0-2.86-2.288-5.148-5.148-5.148zM467.815 36c-1.584-.88-3.432-1.32-5.28-1.32-7.084 0-12.628 5.016-12.628 12.276 0 6.82 5.588 11.792 12.276 11.792 1.936 0 3.872-.396 5.632-1.276v-6.776c-1.056.968-2.596 1.54-4.004 1.54-3.3 0-5.632-2.288-5.632-5.544 0-3.124 2.42-5.5 5.5-5.5 1.54 0 2.948.704 4.136 1.584zm16.781 5.632c3.256 0 5.148 2.332 5.148 5.104 0 2.86-1.892 5.06-5.148 5.06s-5.148-2.2-5.148-5.06c0-2.772 1.892-5.104 5.148-5.104zm12.892-6.204h-8.008v2.2c-1.672-1.98-4.4-2.948-6.996-2.948-6.688 0-11.308 5.544-11.308 12.012s4.708 12.056 11.396 12.056c2.64 0 5.412-1.012 6.82-3.256h.088V58h8.008z" fill="#1a202c"/>
  </g>
</svg>