<svg fill="none" height="143" viewBox="0 0 156 143" width="156" xmlns="http://www.w3.org/2000/svg" xmlns:xlink="http://www.w3.org/1999/xlink"><clipPath id="a"><path d="m0 0h156v143h-156z"/></clipPath><g clip-path="url(#a)"><path d="m0 0h156v143h-156z" fill="#fff"/><path d="m52.7152 115.28h1.2c3.84 0 9.66-.54 9.66 4.92 0 4.98-5.88 4.8-9.36 4.8h-1.5zm6.36 18.72c8.28 0 16.38-3.12 16.38-12.6 0-6.3-2.76-10.68-9.24-11.52v-.12c3.66-1.86 4.98-5.16 4.98-9.24 0-8.64-5.4-11.76-13.44-11.76h-16.8v45.24zm-6.36-36.24h.84c3.18 0 6.84.24 6.84 4.38 0 3.84-3.24 4.38-6.36 4.38h-1.32zm40.6055 8.46v-17.46h-11.76v45.24h11.76v-18.54h16.9803v18.54h11.76v-45.24h-11.76v17.46z" fill="#667eea"/><path d="m80.9655 4.216c-20.832 0-40.032 15.36-40.032 37.248 0 23.424 16.8 39.936 40.032 39.936 23.2325 0 40.0325-16.512 40.0325-39.936 0-21.888-19.2-37.248-40.0325-37.248zm0 18.24c11.232 0 20.4485 9.12 20.4485 19.104 0 12.48-9.2165 21.6-20.4485 21.6s-20.448-9.12-20.448-21.6c0-9.984 9.216-19.104 20.448-19.104z" fill="#4c51bf"/></g></svg>