<svg width="525" height="83" viewBox="0 0 525 83" fill="none" xmlns="http://www.w3.org/2000/svg">
<g clip-path="url(#clip0_2_7)">
<rect width="525" height="83" fill="white"/>
<path d="M31.492 23.724C21.944 23.724 13.144 30.764 13.144 40.796C13.144 51.532 20.844 59.1 31.492 59.1C42.14 59.1 49.84 51.532 49.84 40.796C49.84 30.764 41.04 23.724 31.492 23.724ZM31.492 32.084C36.64 32.084 40.864 36.264 40.864 40.84C40.864 46.56 36.64 50.74 31.492 50.74C26.344 50.74 22.12 46.56 22.12 40.84C22.12 36.264 26.344 32.084 31.492 32.084ZM61.3996 35.428H53.3916V69.264H61.3996V55.844C63.1156 57.824 65.7996 58.748 68.3956 58.748C75.0836 58.748 79.7036 53.292 79.7036 46.78C79.7036 40.312 75.0396 34.68 68.3076 34.68C65.6676 34.68 62.9396 35.736 61.4876 37.98H61.3996V35.428ZM66.2836 41.632C69.5396 41.632 71.4316 43.964 71.4316 46.736C71.4316 49.596 69.5396 51.796 66.2836 51.796C63.0276 51.796 61.1356 49.596 61.1356 46.736C61.1356 43.964 63.0276 41.632 66.2836 41.632ZM90.1158 43.436C90.5998 41.104 92.5358 39.872 94.8678 39.872C97.0238 39.872 99.0038 41.28 99.3998 43.436H90.1158ZM106.836 47.22C106.836 39.52 102.304 34.68 94.4718 34.68C87.1238 34.68 81.9758 39.212 81.9758 46.736C81.9758 54.524 87.5638 58.748 95.0438 58.748C97.6398 58.748 100.192 58.132 102.26 56.856C104.328 55.58 105.912 53.644 106.528 51.004H98.8278C97.9478 52.5 96.7158 53.072 94.9998 53.072C91.6998 53.072 89.9838 51.312 89.9838 48.056H106.836V47.22ZM118.511 35.428H110.503V58H118.511V48.892C118.511 45.02 119.611 42.072 124.055 42.072C125.287 42.072 126.343 42.204 127.443 42.82V35.12H125.903C122.779 35.12 120.139 36.352 118.599 39.124H118.511V35.428ZM142.233 41.632C145.489 41.632 147.381 43.964 147.381 46.736C147.381 49.596 145.489 51.796 142.233 51.796C138.977 51.796 137.085 49.596 137.085 46.736C137.085 43.964 138.977 41.632 142.233 41.632ZM155.125 35.428H147.117V37.628C145.445 35.648 142.717 34.68 140.121 34.68C133.433 34.68 128.813 40.224 128.813 46.692C128.813 53.16 133.521 58.748 140.209 58.748C142.849 58.748 145.621 57.736 147.029 55.492H147.117V58H155.125V35.428ZM169.189 42.028H173.721V35.428H169.189V28.652H161.181V35.428H158.585V42.028H161.181V58H169.189V42.028ZM184.296 35.428H176.288V58H184.296V35.428ZM180.292 22.272C177.828 22.272 175.804 24.296 175.804 26.76C175.804 29.224 177.828 31.248 180.292 31.248C182.756 31.248 184.78 29.224 184.78 26.76C184.78 24.296 182.756 22.272 180.292 22.272ZM201.49 34.68C194.23 34.68 187.894 39.036 187.894 46.736C187.894 54.436 194.274 58.748 201.49 58.748C208.75 58.748 215.086 54.392 215.086 46.736C215.086 39.036 208.75 34.68 201.49 34.68ZM201.49 41.632C204.746 41.632 206.638 43.964 206.638 46.736C206.638 49.596 204.746 51.796 201.49 51.796C198.234 51.796 196.342 49.596 196.342 46.736C196.342 43.964 198.234 41.632 201.49 41.632ZM226.707 35.428H218.699V58H226.707V46.296C226.707 43.48 227.631 41.06 230.887 41.06C234.847 41.06 234.495 44.844 234.495 47V58H242.503V44.052C242.503 38.508 240.083 34.68 234.011 34.68C230.887 34.68 228.643 35.604 226.795 38.332H226.707V35.428ZM256.588 44.272H257.468C260.284 44.272 264.552 43.876 264.552 47.88C264.552 51.532 260.24 51.4 257.688 51.4H256.588V44.272ZM261.252 58C267.324 58 273.264 55.712 273.264 48.76C273.264 44.14 271.24 40.928 266.488 40.312V40.224C269.172 38.86 270.14 36.44 270.14 33.448C270.14 27.112 266.18 24.824 260.284 24.824H247.964V58H261.252ZM256.588 31.424H257.204C259.536 31.424 262.22 31.6 262.22 34.636C262.22 37.452 259.844 37.848 257.556 37.848H256.588V31.424ZM284.034 43.436C284.518 41.104 286.454 39.872 288.786 39.872C290.942 39.872 292.922 41.28 293.318 43.436H284.034ZM300.754 47.22C300.754 39.52 296.222 34.68 288.39 34.68C281.042 34.68 275.894 39.212 275.894 46.736C275.894 54.524 281.482 58.748 288.962 58.748C291.558 58.748 294.11 58.132 296.178 56.856C298.246 55.58 299.83 53.644 300.446 51.004H292.746C291.866 52.5 290.634 53.072 288.918 53.072C285.618 53.072 283.902 51.312 283.902 48.056H300.754V47.22ZM316.213 41.632C319.469 41.632 321.361 43.964 321.361 46.736C321.361 49.596 319.469 51.796 316.213 51.796C312.957 51.796 311.065 49.596 311.065 46.736C311.065 43.964 312.957 41.632 316.213 41.632ZM329.105 35.428H321.097V37.628C319.425 35.648 316.697 34.68 314.101 34.68C307.413 34.68 302.793 40.224 302.793 46.692C302.793 53.16 307.501 58.748 314.189 58.748C316.829 58.748 319.601 57.736 321.009 55.492H321.097V58H329.105V35.428ZM342.421 35.428H334.413V58H342.421V48.892C342.421 45.02 343.521 42.072 347.965 42.072C349.197 42.072 350.253 42.204 351.353 42.82V35.12H349.813C346.689 35.12 344.049 36.352 342.509 39.124H342.421V35.428ZM363.151 37.628V24.824H354.527V58H363.151V44.404H375.603V58H384.227V24.824H375.603V37.628H363.151ZM389.539 35.428V49.024C389.539 56.46 394.775 58.748 401.551 58.748C408.327 58.748 413.563 56.46 413.563 49.024V35.428H405.555V47.484C405.555 50.344 404.851 52.368 401.551 52.368C398.251 52.368 397.547 50.344 397.547 47.484V35.428H389.539ZM443.447 35.428H435.439V37.804H435.351C433.767 35.56 431.347 34.68 428.707 34.68C421.799 34.68 417.135 40.312 417.135 46.912C417.135 53.424 421.667 58.44 428.267 58.44C431.259 58.44 433.371 57.428 435.439 55.36V56.416C435.439 60.068 434.603 62.884 430.291 62.884C429.543 62.884 428.707 62.708 428.003 62.356C427.299 62.004 426.727 61.432 426.507 60.64H417.531C418.235 66.58 425.187 69.264 430.379 69.264C438.695 69.264 443.447 65.392 443.447 55.8V35.428ZM430.555 41.456C433.811 41.456 435.703 43.788 435.703 46.56C435.703 49.42 433.811 51.62 430.555 51.62C427.299 51.62 425.407 49.42 425.407 46.56C425.407 43.788 427.299 41.456 430.555 41.456ZM453.381 48.584C450.521 48.584 448.233 50.872 448.233 53.732C448.233 56.548 450.521 58.88 453.381 58.88C456.241 58.88 458.529 56.548 458.529 53.732C458.529 50.872 456.241 48.584 453.381 48.584ZM479.815 36C478.231 35.12 476.383 34.68 474.535 34.68C467.451 34.68 461.907 39.696 461.907 46.956C461.907 53.776 467.495 58.748 474.183 58.748C476.119 58.748 478.055 58.352 479.815 57.472V50.696C478.759 51.664 477.219 52.236 475.811 52.236C472.511 52.236 470.179 49.948 470.179 46.692C470.179 43.568 472.599 41.192 475.679 41.192C477.219 41.192 478.627 41.896 479.815 42.776V36ZM496.596 41.632C499.852 41.632 501.744 43.964 501.744 46.736C501.744 49.596 499.852 51.796 496.596 51.796C493.34 51.796 491.448 49.596 491.448 46.736C491.448 43.964 493.34 41.632 496.596 41.632ZM509.488 35.428H501.48V37.628C499.808 35.648 497.08 34.68 494.484 34.68C487.796 34.68 483.176 40.224 483.176 46.692C483.176 53.16 487.884 58.748 494.572 58.748C497.212 58.748 499.984 57.736 501.392 55.492H501.48V58H509.488V35.428Z" fill="#1A202C"/>
</g>
<defs>
<clipPath id="clip0_2_7">
<rect width="525" height="83" fill="white"/>
</clipPath>
</defs>
</svg>
